<svg width="47" height="48" viewBox="0 0 47 48" fill="none" xmlns="http://www.w3.org/2000/svg">
<rect opacity="0.2" width="47" height="48" rx="13" fill="white"/>
<path d="M22.1244 13.0908H23.8753L23.9269 13.9452C24.2227 18.8506 28.1493 22.7772 33.0546 23.0731L33.909 23.1246V24.8756L33.0546 24.9271C28.1493 25.223 24.2227 29.1497 23.9269 34.055L23.8753 34.9094H22.1244L22.0728 34.055C21.777 29.1497 17.8504 25.223 12.9452 24.9271L12.0908 24.8756V23.1246L12.9452 23.0731C17.8504 22.7772 21.777 18.8506 22.0728 13.9452L22.1244 13.0908ZM22.9999 17.8501C21.83 20.6154 19.6151 22.8303 16.85 24.0001C19.6151 25.17 21.83 27.3849 22.9999 30.1501C24.1697 27.3849 26.3846 25.17 29.1498 24.0001C26.3846 22.8303 24.1697 20.6154 22.9999 17.8501Z" fill="white"/>
</svg>